# xmcd
#
# Track frame offsets: 
#        150
#        16355
#        26202
#        39575
#        50215
#        62177
#        75152
#        86782
#        101570
#        113917
#        124782
#        146610
#        161520
#        174972
#        189377
#        203610
#        220652
#        233875
#        243067
#        259207
#        272565
#        293172
#
# Disc length: 4110 seconds
#
# Revision: 3
# Processed by: cddbd v1.5.2PL0 Copyright (c) Steve Scherf et al.
# Submitted via: ExactAudioCopy v0.99pb5
#
DISCID=32100c16
DTITLE=Waylon Jennings - The Complete MCA Recordings Disc 2
DYEAR=2004
DGENRE=Country
TTITLE0=Prologue
TTITLE1=Chapter One ... Childhood: Littlefield
TTITLE2=Chapter Two ... Texas: You'll Never Take Texas Out Of Me
TTITLE3=Chapter Three ... First Love: You Went Out With Rock 'N' Roll
TTITLE4=Chapter Four ... Lost Love: A Love Song (I Can't Sing Anymore)
TTITLE5=Chapter Five ... Nashville: If Old Hank Could Only See Us Now
TTITLE6=Chapter Six ... Crazies: My Rough And Rowdy Days
TTITLE7=Chapter Seven ... Drugs: I'm Living Proof (There's Life After 
TTITLE7=You)
TTITLE8=Chapter Eight ... Jessi: You Deserve The Stars In My Crown
TTITLE9=Chapter Nine ... Reflections: Turn It All Around
TTITLE10=Chapter Ten ... The Beginning: Where Do We Go From Here
TTITLE11=Trouble Man
TTITLE12=Grapes On The Vine
TTITLE13=Which Way Do I Go (Now That I'm Gone)
TTITLE14=Yoyos, Bozos, Bimbos And Heroes
TTITLE15=It Goes With The Territory
TTITLE16=How Much Is It Worth To Live In L.A.
TTITLE17=Hey Willie
TTITLE18=You Put The Soul In The Song
TTITLE19=G.I. Joe
TTITLE20=Woman I Hate It
TTITLE21=Somewhere Between Ragged And Right (With John Anderson)
EXTD=(c)2004 MCA Records Nashville, A Division of  UMG Recordings Inc.
EXTD=\nBox upc 602498605813\nKatalog: B00000926-02\nwww.universalchron
EXTD=icles.com
EXTT0=
EXTT1=
EXTT2=
EXTT3=
EXTT4=
EXTT5=
EXTT6=
EXTT7=
EXTT8=
EXTT9=
EXTT10=
EXTT11=
EXTT12=
EXTT13=
EXTT14=
EXTT15=
EXTT16=
EXTT17=
EXTT18=
EXTT19=
EXTT20=
EXTT21=
PLAYORDER=
